<svg id="Layer_1" data-name="Layer 1" xmlns="http://www.w3.org/2000/svg" xmlns:xlink="http://www.w3.org/1999/xlink" width="134.81" height="16.94" viewBox="0 0 134.81 16.94"><defs><style>.cls-1{fill:#fff;}.cls-2{mask:url(#mask);}</style><mask id="mask" x="0" y="-7" width="136" height="30" maskUnits="userSpaceOnUse"><g transform="translate(0 0)"><g id="logo-white-b"><rect id="logo-white-a" class="cls-1" y="-7" width="136" height="30"/></g></g></mask></defs><title>logo-white</title><g class="cls-2"><path class="cls-1" d="M4.8,9.12Q4.54,8.74,4.08,8L3.48,7l-0.1.07V16.7H0V0.24H3.14L8.33,7.87,9,9q0.38,0.67.6,1l0.07-.07V0.24H13.1V16.7H10ZM30.7,9.65a7.52,7.52,0,0,1-1,3.91,6.53,6.53,0,0,1-2.65,2.52,8.39,8.39,0,0,1-7.42,0A6.53,6.53,0,0,1,17,13.56a7.52,7.52,0,0,1-1-3.91V7.3a7.52,7.52,0,0,1,1-3.91A6.53,6.53,0,0,1,19.64.86a8.39,8.39,0,0,1,7.42,0,6.53,6.53,0,0,1,2.65,2.52,7.52,7.52,0,0,1,1,3.91V9.65ZM26.81,6.77a3.9,3.9,0,0,0-1-2.82,3.31,3.31,0,0,0-2.5-1,3.31,3.31,0,0,0-2.5,1,3.9,3.9,0,0,0-1,2.82v3.41a3.9,3.9,0,0,0,1,2.82,3.31,3.31,0,0,0,2.5,1,3.31,3.31,0,0,0,2.5-1,3.9,3.9,0,0,0,1-2.82V6.77Zm6.77-6.53h7.58v3H39.24V13.75h1.92v3H33.58v-3h1.94V3.19H33.58v-3ZM48,10.18a3.84,3.84,0,0,0,1,2.82,3.36,3.36,0,0,0,2.5,1A3.19,3.19,0,0,0,54,13.07a4.21,4.21,0,0,0,.82-2.84h3.38a7.34,7.34,0,0,1-.85,3.64A5.64,5.64,0,0,1,55,16.16a7.13,7.13,0,0,1-3.36.78H51.26a8,8,0,0,1-3.7-.84A6.14,6.14,0,0,1,45,13.62a7.91,7.91,0,0,1-.94-4V7.3A7.82,7.82,0,0,1,45,3.38,6.3,6.3,0,0,1,47.56.86,7.55,7.55,0,0,1,51.17,0H51.5a7.5,7.5,0,0,1,3.42.76A5.55,5.55,0,0,1,57.29,3a7.46,7.46,0,0,1,.86,3.73H54.62a4.28,4.28,0,0,0-.83-2.84,3,3,0,0,0-2.39-1,3.32,3.32,0,0,0-2.48,1,3.87,3.87,0,0,0-1,2.82v3.41ZM61,16.7V0.24H72.62l-0.41,3H64.68v3.6h7v3h-7v4h7.61l0.41,3H61Zm14.35,0V0.24H79.1V13.63h6.77l0.41,3.07H75.38Zm22.39-3.24H91.22L90.07,16.7H86.5l6-16.46h4.42l6,16.46H99Zm-5.54-2.81h4.56Q95.88,7.94,94.58,4.2H94.46Zm17.21-1.54q-0.26-.38-0.72-1.14l-0.6-1-0.1.07V16.7h-3.38V0.24h3.14L113,7.87,113.69,9q0.38,0.67.6,1l0.07-.07V0.24h3.38V16.7H114.6Zm18-8.88a7.94,7.94,0,0,1,3.71.86,6.53,6.53,0,0,1,2.65,2.52,7.52,7.52,0,0,1,1,3.91V9.41a7.52,7.52,0,0,1-1,3.91,6.53,6.53,0,0,1-2.65,2.52,7.94,7.94,0,0,1-3.71.86h-6.24V0.24h6.24Zm-2.52,13.51h2.52a3.31,3.31,0,0,0,2.5-1,3.9,3.9,0,0,0,1-2.82V7a3.9,3.9,0,0,0-1-2.82,3.31,3.31,0,0,0-2.5-1h-2.52V13.75Z" transform="translate(0 0)"/></g></svg>